<svg id="svg" xmlns="http://www.w3.org/2000/svg" viewBox="0 0 393.7 394.8" width="2493" height="2500"><style>.st0{fill:#045c84}</style><g id="svgg"><path id="path4" class="st0" d="M198.2 6.5c-.7.1-1.2.3-1.2.5s-.3.3-.6.3c-.8 0-3.2 1.4-3.6 2.1-.2.3-.6.8-1.1 1.1-1.7 1.4-76.4 76.2-76.9 76.9-.2.4-.6 1-.7 1.3-.1.3-.4.9-.6 1.3-1.1 2.1-.5 8.9 1 10.6.3.3.5.8.5 1 0 .9 76.1 76.4 77.8 77.2.9.4 1.7.9 1.9 1.2.4.5 8.8.5 9.1 0 .1-.2.7-.5 1.3-.7.9-.2 11.7-10.4 14.6-13.7.3-.4 1.7-1.7 2.9-3 1.3-1.2 3.6-3.6 5.2-5.2l4.6-4.6c1-1 3.1-3 4.6-4.6l4.1-4.1 5.3-5.3c2.2-2.2 4.2-4.2 4.3-4.4 22.6-22.5 35.3-35.2 35.3-35.7 0-.3.2-.5.4-.5s.5-.8.6-1.9c.1-1 .4-1.9.6-2.1.4-.3.4-4.1 0-4.4-.2-.1-.4-.6-.4-1.1 0-2.4-1.8-4.3-39.8-42.2-42.3-42.2-40-40.2-45.2-40.4-1.4.3-3.3.3-4 .4M304.3 111c-.6.1-1.3.3-1.5.5-.2.2-.6.3-.8.3-1.1 0-4 2.8-42.2 41-28.2 28.1-39.4 39.6-39.6 40.4-.1.6-.4 1.2-.7 1.3-.6.4-.5 8.9 0 9.1.3.1.5.4.5.6 0 .3.2.7.6.9.3.3.6.7.6 1 0 .7 76.5 77.1 77.2 77.1.3 0 .8.3 1.1.6 1.5 1.5 8.4 1.6 11.6.2 1.2-.5 5.7-4.8 18.2-17.3 9.1-9.1 17.7-17.6 19-18.9l4.6-4.6c1.3-1.3 3.3-3.4 4.6-4.6 1.3-1.3 3.4-3.3 4.6-4.6l5.2-5.2 4-4c.6-.6 3-3.1 5.4-5.4 2.4-2.4 4.5-4.4 4.6-4.6.2-.2 2.2-2.1 4.4-4.4 5.6-5.6 6.9-7 6.9-8 0-.5.2-.9.5-1 1.1-.4.6-8-.7-10.4-1.6-2.9-76.2-77.3-78.7-78.6-.9-.4-1.7-.9-1.8-1.1-.3-.3-6.1-.6-7.6-.3M93 113.7c0 .2-.8.4-1.7.5-2.5.3-5.8 3.2-18.2 15.9l-4.1 4.1c-1.3 1.3-3.4 3.3-4.6 4.6l-4.1 4.1c-1 1-3.4 3.3-5.3 5.3s-3.9 3.9-4.4 4.4l-9.7 9.7c-.2.2-7.3 7.3-15.9 15.8-14.8 14.7-17.2 17.3-17.2 18.7 0 .3-.2.6-.5.7-.6.2-.7 8.3-.1 8.7.2.1.7 1 1.2 1.9 1 2 76.4 77.5 77.9 78 .5.2 1 .4 1.1.6.1.2.9.4 1.7.6.8.1 1.6.4 1.7.6.2.3.4.2.6-.1.2-.4.4-.4.4-.1 0 .5 3.2.7 3.5.1.1-.2 1-.4 2.1-.6 1-.1 1.9-.4 1.9-.6 0-.2.2-.4.4-.4 1 0 80.2-79.3 80.6-80.6.1-.6.4-1.3.7-1.6.6-.7.6-8.5 0-8.8-.2-.1-.6-.8-.8-1.6-.5-1.5 2.1 1.1-42.5-43.4-22.6-22.5-35.1-34.8-35.8-34.9-.5-.1-1-.4-1-.6s-.7-.4-1.5-.6c-.8-.1-1.6-.4-1.7-.6-.4-.3-4.7-.3-4.7.2m105.4 106.6c-.1.2-1 .4-2.1.6-1 .1-1.9.4-1.9.6s-.4.4-.8.6c-.4.1-11.2 10.6-23.9 23.3-12.7 12.7-24.1 24.1-25.4 25.3l-4.6 4.6-5.2 5.2-4.6 4.6c-1 1-3 3.1-4.6 4.6l-4.1 4.1c-.6.7-2.4 2.4-3.9 3.9s-3.1 3.4-3.6 4.3c-.5.9-1 1.9-1.2 2.3-1.1 2.2-.2 10.6 1.2 10.6.2 0 .3.3.3.6 0 .7 76.5 77.2 77.2 77.2.3 0 .8.3 1.1.6.3.3 1.3.7 2.1.8.8.1 1.5.3 1.5.5 0 .4 4.1.5 4.6.1.2-.2 1.2-.4 2.2-.6 1-.1 1.8-.4 1.8-.6 0-.2.2-.3.5-.3.6 0 79.3-78.5 80.3-80.1.3-.5.7-1.7.9-2.5.1-.8.4-1.6.6-1.7.4-.3.4-4.6 0-4.6-.2 0-.4-.7-.5-1.5-.1-.8-.4-1.6-.6-1.8-.2-.1-.5-.6-.6-1.1-.4-1.1-76.6-77.2-77.8-77.6-.5-.2-.9-.5-.9-.6 0-.2-.6-.4-1.4-.5-.8-.1-1.7-.4-2-.6-.9-.7-4.4-.7-4.6-.3M0 0"/></g></svg>